<svg viewBox="0 0 98 20" id="a86c2f128ad1ae6efaf5a9fde6edd069" xmlns="http://www.w3.org/2000/svg" width="100%" height="100%"><g fill="#FFF" fill-rule="evenodd"><path d="M35.698 8.942a3.962 3.962 0 0 0-1.197-2.815 3.98 3.98 0 0 0-2.894-1.066c-2.202-.07-4.08 1.628-4.288 3.88h8.38zm-3.89 5.927c.779 0 6.184-.075 6.184-.075l-1.2 2.16s-4.045-.034-5.159-.034a6.91 6.91 0 0 1-3.455-.96 5.964 5.964 0 0 1-2.34-2.426A7.468 7.468 0 0 1 25 9.964a7.385 7.385 0 0 1 .836-3.557 6.182 6.182 0 0 1 2.328-2.438 6.576 6.576 0 0 1 3.421-.887 5.73 5.73 0 0 1 4.636 1.857 8.474 8.474 0 0 1 1.572 5.409c0 .342-.008.6-.024.77H27.344a4.092 4.092 0 0 0 1.484 2.668 4.323 4.323 0 0 0 2.98 1.083zm12.53 1.95c-.981 0-4.267.181-4.267.181l1.013-2.226s2.564.12 3.329.12c.643.03 1.281-.12 1.846-.437.457-.276.726-.79.698-1.334a1.53 1.53 0 0 0-.736-1.387 9.88 9.88 0 0 0-2.232-.925 14.706 14.706 0 0 1-2.157-.783A3.842 3.842 0 0 1 40.41 8.86a3.218 3.218 0 0 1-.584-2.002 3.258 3.258 0 0 1 1.346-2.85 5.703 5.703 0 0 1 3.368-.949c.798 0 2.855-.019 2.855-.019l.98 2.121s-3.41-.125-4.01-.125a3.141 3.141 0 0 0-1.684.4 1.343 1.343 0 0 0-.637 1.22c-.015.52.261 1.005.712 1.245.685.37 1.409.658 2.157.86.765.22 1.514.495 2.241.823.58.272 1.09.685 1.484 1.201.43.608.646 1.35.61 2.101a3.366 3.366 0 0 1-1.408 2.928 5.896 5.896 0 0 1-3.502 1.006zm11.742-2.674c.27.387.698.625 1.16.645.632 0 1.444-.07 1.444-.07l1.267 2.19s-2.047-.068-3.093-.068a3.464 3.464 0 0 1-2.544-.963 3.913 3.913 0 0 1-.78-2.915V5.177h-2.1l-1.042-2.124h7.315l1.04 2.124h-3.13v7.355a2.538 2.538 0 0 0 .463 1.613zm14.623-3.594h-3.865a4.399 4.399 0 0 0-2.333.492c-.51.33-.803.922-.761 1.54a2.023 2.023 0 0 0 .774 1.67 3.23 3.23 0 0 0 2.07.616 4.633 4.633 0 0 0 2.757-.809 3.202 3.202 0 0 0 1.359-2.144v-1.361l-.001-.004zm.025 4.289a5.341 5.341 0 0 1-4.614 2 5.132 5.132 0 0 1-2.407-.54 3.886 3.886 0 0 1-1.596-1.488 4.107 4.107 0 0 1-.561-2.132 3.53 3.53 0 0 1 1.31-2.888A5.839 5.839 0 0 1 66.512 8.4h4.19v-.336a2.85 2.85 0 0 0-.86-2.221 3.598 3.598 0 0 0-2.507-.784c-1.33 0-3.489.1-3.489.1L62.844 3l1.297.058s2.555.021 3.67.021a5.418 5.418 0 0 1 3.817 1.245 4.58 4.58 0 0 1 1.37 3.483l.025 8.936h-2.295V14.84zm8.738-.695c.268.387.697.625 1.16.645.631 0 1.443-.07 1.443-.07l1.267 2.19s-2.046-.068-3.093-.068a3.464 3.464 0 0 1-2.544-.963 3.913 3.913 0 0 1-.78-2.915V5.177h-2.1l-1.042-2.124h7.315l1.04 2.124h-3.13v7.355a2.538 2.538 0 0 0 .464 1.613zm14.342-8.02a3.98 3.98 0 0 0-2.892-1.066 4.102 4.102 0 0 0-2.907 1.081 4.399 4.399 0 0 0-1.385 2.835h8.38a4.044 4.044 0 0 0-1.196-2.85zm3.269 4.997H86.65a4.098 4.098 0 0 0 1.484 2.668 4.317 4.317 0 0 0 2.98 1.079 5.43 5.43 0 0 0 2.183-.437 5.235 5.235 0 0 0 1.759-1.232l1.272 1.36a6.679 6.679 0 0 1-2.345 1.67 7.61 7.61 0 0 1-3.043.59 6.853 6.853 0 0 1-3.454-.86 5.967 5.967 0 0 1-2.345-2.427 7.468 7.468 0 0 1-.836-3.57 7.392 7.392 0 0 1 .836-3.556 6.182 6.182 0 0 1 2.331-2.438 6.58 6.58 0 0 1 3.417-.887 5.724 5.724 0 0 1 4.64 1.861 8.469 8.469 0 0 1 1.57 5.409c0 .343-.007.6-.023.77zM13.672 16.03l2.123 2.12A9.954 9.954 0 0 1 10 20C4.477 20 0 15.523 0 10S4.477 0 10 0s10 4.477 10 10c0 2.16-.685 4.16-1.849 5.794l-2.125-2.117a7.059 7.059 0 1 0-2.354 2.352zM10 12a2 2 0 1 1 0-4 2 2 0 0 1 0 4z"></path></g></svg>